<?xml version="1.0" encoding="UTF-8"?>
<svg id="Vrstva_1" xmlns="http://www.w3.org/2000/svg" xmlns:xlink="http://www.w3.org/1999/xlink" version="1.1" viewBox="0 0 3000 3000">
  <!-- Generator: Adobe Illustrator 29.6.1, SVG Export Plug-In . SVG Version: 2.1.1 Build 9)  -->
  <defs>
    <clipPath id="clippath">
      <rect width="3000" height="3000" fill="none"/>
    </clipPath>
    <clipPath id="clippath-1">
      <rect width="3000" height="3000" fill="none"/>
    </clipPath>
  </defs>
  <g clip-path="url(#clippath)">
    <rect width="3000" height="3000" fill="#063a72"/>
  </g>
  <g clip-path="url(#clippath-1)">
    <path d="M870.1,1383h505.2v216.1h-505.2v-216.1ZM1279.6,1143.2h244.5v710.8h-244.5v-710.8ZM731.8,1143.2h244.5v710.8h-244.5v-710.8Z" fill="#ebfe00"/>
    <polygon points="1686.2 1854 2073.8 1266.4 2073.8 1332.7 1596.1 1332.7 1596.1 1143.2 2299.4 1143.2 2299.4 1336.5 1971.4 1854 1686.2 1854" fill="#ebfe00"/>
    <path d="M1903.3,1757.9c2.9,1.9,5.9,3,8.9,3.2,3,.3,5.9-.3,8.6-1.6,2.7-1.3,4.9-3.3,6.7-6.1,1.8-2.8,3-6,3.3-9.3.4-3.4,0-6.8-.9-10.2-1-3.4-2.6-6.5-4.9-9.4-3.5-1-7.1-1.2-10.6-.7-3.5.5-6.8,1.6-9.7,3.3-2.9,1.7-5.3,4-7.2,6.8-1.8,2.8-2.8,5.7-2.8,8.6,0,3,.6,5.8,2.1,8.5,1.5,2.7,3.7,5,6.6,6.9ZM1928.8,1718.6c5.6,5,9.9,10.4,12.7,16.3,2.8,5.9,4.1,11.8,3.8,17.9-.3,6.1-2.2,11.9-5.8,17.4-3.7,5.7-8.3,10-13.8,12.7-5.4,2.7-11.3,3.7-17.6,3.2-6.3-.6-12.5-2.9-18.7-6.9-6.2-4.1-10.9-8.8-14-14.3-3.1-5.5-4.5-11.3-4.3-17.3.2-6.1,2.2-12,6-17.7,3.6-5.6,8.1-9.7,13.5-12.4s11.4-4,17.9-3.9c6.5.1,13.2,1.9,20.1,5.1ZM1955.1,1742.7l-23-11.1-6.3-8.2-10-2.4-19.6-16.6,14.2-21.9,27,22.8,31.9,15.4-14.2,21.9Z" fill="#004289"/>
    <path d="M1996.3,1624.8c4.9,4,8.3,8.9,10.1,14.8s2.2,12.2,1,18.9c-1.2,6.7-3.9,13.3-8.1,19.8-4.7,7.2-10.1,12.8-16.3,16.6-6.2,3.8-12.6,5.7-19.3,5.8s-13.1-1.9-19.2-5.9c-6.2-4-10.6-9.1-13.2-15.2-2.7-6.1-3.5-12.8-2.6-20,.9-7.2,3.8-14.5,8.5-21.7,4.2-6.5,9.2-11.7,14.8-15.5,5.6-3.8,11.5-6.1,17.6-6.8,6.1-.7,12,.4,17.7,3.3l-13.6,20.9c-4-1.5-7.9-1.5-11.5,0-3.7,1.5-6.8,4.3-9.4,8.2-2,3.1-3.2,6.2-3.5,9.3s.3,6,1.8,8.8c1.5,2.7,3.9,5.2,7.2,7.4,3.3,2.1,6.5,3.3,9.6,3.6,3.1.2,6-.4,8.7-2s5.1-3.9,7.1-7c2.6-4,3.8-8,3.6-12-.2-4-1.7-7.5-4.5-10.4l13.6-20.9Z" fill="#004289"/>
    <path d="M1979.3,1610.5l-9.2-6,3-15.1-11.5-20.4,7.8-12,15.8,10.3,16.1-24.8,15.6,10.1-16.1,24.8,17.4,11.3c4.2,2.7,7.7,3.8,10.6,3.2,2.8-.6,5.7-3.2,8.7-7.8,1.9-2.9,3.3-5.6,4.2-8.1s1.6-5,2-7.5l15.8,10.3c-.6,2.6-1.7,5.8-3.2,9.6-1.5,3.8-3.5,7.4-5.8,11-4.2,6.5-8.7,11.2-13.4,14-4.7,2.9-9.6,4.1-14.6,3.7-5-.4-10.1-2.3-15.1-5.5l-20.3-13.2-7.8,12Z" fill="#004289"/>
    <path d="M2008.6,1518.8c-2.4,3.6-5.2,6-8.5,7.1-3.3,1.1-6.5.6-9.7-1.4-3.1-2-4.9-4.8-5.3-8.2-.4-3.5.6-7,3-10.7,2.4-3.7,5.3-6.1,8.6-7.2,3.3-1,6.5-.5,9.6,1.5,3.1,2,4.9,4.8,5.3,8.2.4,3.4-.6,7-3.1,10.8ZM2006.6,1532.4l8.9-9.2,4.7-11.9,59.8,38.8-13.7,21.1-59.8-38.8Z" fill="#004289"/>
    <polygon points="2102.1 1494.4 2097.4 1501.5 2061.8 1449.4 2076.3 1427 2117.3 1492.8 2101.8 1516.7 2025 1506 2040.1 1482.8 2102.1 1494.4" fill="#004289"/>
    <path d="M2160.8,1429.5c-4.6,7.1-10.1,12.6-16.3,16.6-6.3,3.9-12.8,5.9-19.6,6.1-6.8.2-13.3-1.8-19.6-5.8-6.2-4-10.6-9.1-13.2-15.2-2.6-6.1-3.5-12.7-2.6-19.8.9-7.1,3.6-14,8-20.9,4.6-7,10-12,16.3-15.1,6.3-3,13.1-4.1,20.4-3.2,7.3.9,14.7,3.8,22.3,8.7l-34,52.3-12.7-8.2,26.3-40.4v9.8c-3.2-1.7-6.2-2.6-9.1-2.7-2.9-.1-5.6.5-8,1.8-2.4,1.3-4.6,3.4-6.4,6.2-2,3.1-3.1,6.1-3.3,9.2-.2,3,.4,5.8,1.8,8.5,1.4,2.6,3.5,4.9,6.3,6.7,3.7,2.4,7.4,3.6,11.1,3.6s7.3-1.1,10.8-3.5c3.5-2.4,6.8-5.9,9.9-10.7,2.8-4.3,5.1-9,6.7-14.1,1.7-5,2.6-10,2.7-14.8l13.4,8.7c.1,5.9-.8,11.8-2.6,18-1.9,6.1-4.7,12.2-8.7,18.3Z" fill="#004289"/>
  </g>
</svg>